<svg version="1.1" viewBox="0.0 0.0 960.0 540.0" fill="none" stroke="none" stroke-linecap="square" stroke-miterlimit="10" xmlns:xlink="http://www.w3.org/1999/xlink" xmlns="http://www.w3.org/2000/svg"><clipPath id="g9c5999a245_0_0.0"><path d="m0 0l960.0 0l0 540.0l-960.0 0l0 -540.0z" clip-rule="nonzero"/></clipPath><g clip-path="url(#g9c5999a245_0_0.0)"><path fill="#ffffff" d="m0 0l960.0 0l0 540.0l-960.0 0z" fill-rule="evenodd"/><path fill="#ffffff" d="m204.17323 166.12862l414.80316 0l0 89.98424l-414.80316 0z" fill-rule="evenodd"/><path stroke="#595959" stroke-width="1.0" stroke-linejoin="round" stroke-linecap="butt" d="m204.17323 166.12862l414.80316 0l0 89.98424l-414.80316 0z" fill-rule="evenodd"/><path fill="#ff0000" d="m223.19685 178.81102l149.25984 0l0 63.433075l-149.25984 0z" fill-rule="evenodd"/><path stroke="#595959" stroke-width="1.0" stroke-linejoin="round" stroke-linecap="butt" d="m223.19685 178.81102l149.25984 0l0 63.433075l-149.25984 0z" fill-rule="evenodd"/><path fill="#ffffff" d="m273.19107 208.99005l0 11.9375l1.4375 0q1.453125 0 2.0625 0.5625q0.609375 0.546875 0.609375 1.4375q0 0.890625 -0.609375 1.453125q-0.609375 0.546875 -2.0625 0.546875l-5.25 0q-1.453125 0 -2.0625 -0.546875q-0.625 -0.5625 -0.625 -1.46875q0 -0.875 0.609375 -1.421875q0.609375 -0.5625 1.875 -0.5625l0 -15.671875q-1.046875 -0.09375 -1.59375 -0.640625q-0.53125 -0.546875 -0.53125 -1.375q0 -0.890625 0.609375 -1.4375q0.625 -0.5625 2.0625 -0.5625l4.40625 0.015625l5.4375 12.046875l5.359375 -12.0625l4.4375 0.015625q1.4375 0 2.046875 0.546875q0.625 0.546875 0.625 1.4375q0 0.828125 -0.546875 1.375q-0.546875 0.546875 -1.578125 0.640625l0 15.671875q1.265625 0 1.859375 0.5625q0.609375 0.5625 0.609375 1.4375q0 0.890625 -0.609375 1.453125q-0.609375 0.546875 -2.0625 0.546875l-5.265625 0q-1.4375 0 -2.046875 -0.546875q-0.609375 -0.5625 -0.609375 -1.46875q0 -0.875 0.609375 -1.421875q0.609375 -0.5625 2.046875 -0.5625l1.453125 0l0 -11.9375l-4.578125 10.3125l-3.484375 0l-4.640625 -10.3125zm33.26953 0.875q0 1.140625 -0.796875 1.90625q-0.796875 0.75 -2.203125 0.75q-1.40625 0 -2.21875 -0.75q-0.796875 -0.765625 -0.796875 -1.90625q0 -1.125 0.796875 -1.890625q0.8125 -0.765625 2.21875 -0.765625q1.40625 0 2.203125 0.765625q0.796875 0.765625 0.796875 1.890625zm0.046875 13.109375q0 1.125 -0.8125 1.890625q-0.796875 0.765625 -2.203125 0.765625q-1.40625 0 -2.203125 -0.765625q-0.796875 -0.765625 -0.796875 -1.890625q0 -1.140625 0.796875 -1.890625q0.796875 -0.765625 2.203125 -0.765625q1.40625 0 2.203125 0.765625q0.8125 0.75 0.8125 1.890625zm16.894531 -15.78125l0 1.34375q1.09375 -0.9375 2.40625 -1.40625q1.328125 -0.46875 2.859375 -0.46875q3.5625 0 5.625 2.203125q1.640625 1.765625 1.640625 4.609375l0 7.453125q1.28125 0 1.875 0.5625q0.609375 0.546875 0.609375 1.4375q0 0.890625 -0.625 1.453125q-0.609375 0.546875 -2.046875 0.546875l-3.609375 0q-1.453125 0 -2.078125 -0.546875q-0.609375 -0.5625 -0.609375 -1.46875q0 -0.875 0.609375 -1.421875q0.609375 -0.5625 1.875 -0.5625l0 -7.5625q0 -1.3125 -0.703125 -1.921875q-0.921875 -0.78125 -2.75 -0.78125q-1.390625 0 -2.4375 0.546875q-1.046875 0.53125 -2.640625 2.265625l0 7.453125q1.546875 0 1.984375 0.28125q0.96875 0.59375 0.96875 1.71875q0 0.890625 -0.625 1.453125q-0.609375 0.546875 -2.0625 0.546875l-4.546875 0q-1.4375 0 -2.0625 -0.546875q-0.609375 -0.5625 -0.609375 -1.46875q0 -1.09375 0.9375 -1.703125q0.46875 -0.28125 2.015625 -0.28125l0 -9.734375q-1.28125 0 -1.890625 -0.5625q-0.59375 -0.5625 -0.59375 -1.453125q0 -0.875 0.609375 -1.421875q0.625 -0.5625 2.0625 -0.5625l3.8125 0zm37.23828 -7.59375l0 21.328125l0.6875 0q1.421875 0 2.046875 0.5625q0.625 0.546875 0.625 1.4375q0 0.890625 -0.609375 1.453125q-0.609375 0.546875 -2.0625 0.546875l-4.6875 0l0 -0.984375q-1.359375 0.8125 -2.859375 1.21875q-1.5 0.40625 -3.09375 0.40625q-4.515625 0 -7.265625 -2.609375q-2.75 -2.609375 -2.75 -6.484375q0 -4.0625 2.890625 -6.9375q2.890625 -2.875 7.046875 -2.875q1.5625 0 3.0625 0.484375q1.5 0.46875 2.96875 1.4375l0 -4.984375l-0.6875 0q-1.4375 0 -2.0625 -0.546875q-0.609375 -0.5625 -0.609375 -1.453125q0 -0.890625 0.609375 -1.4375q0.625 -0.5625 2.0625 -0.5625l4.6875 0zm-4.0 16.984375q0 -2.484375 -1.734375 -4.203125q-1.734375 -1.71875 -4.265625 -1.71875q-2.5 0 -4.234375 1.71875q-1.734375 1.71875 -1.734375 4.140625q0 2.21875 1.5625 3.640625q1.5625 1.40625 4.40625 1.40625q2.84375 0 4.421875 -1.40625q1.578125 -1.421875 1.578125 -3.578125z" fill-rule="nonzero"/><path fill="#000000" d="m388.60367 178.81102l214.36221 0l0 63.433075l-214.36221 0z" fill-rule="evenodd"/><path stroke="#595959" stroke-width="1.0" stroke-linejoin="round" stroke-linecap="butt" d="m388.60367 178.81102l214.36221 0l0 63.433075l-214.36221 0z" fill-rule="evenodd"/><path fill="#ffffff" d="m405.47867 215.88068l0 5.046875l1.4375 0q1.453125 0 2.0625 0.5625q0.625 0.546875 0.625 1.4375q0 0.890625 -0.625 1.453125q-0.609375 0.546875 -2.0625 0.546875l-6.0625 0q-1.453125 0 -2.078125 -0.546875q-0.609375 -0.5625 -0.609375 -1.46875q0 -0.875 0.625 -1.421875q0.625 -0.5625 2.0625 -0.5625l0.625 0l0 -15.671875l-0.625 0q-1.453125 0 -2.078125 -0.546875q-0.609375 -0.5625 -0.609375 -1.46875q0 -0.890625 0.609375 -1.4375q0.625 -0.5625 2.078125 -0.5625l9.0625 0.015625q4.234375 0 6.5625 2.109375q2.34375 2.09375 2.34375 5.09375q0 1.875 -1.09375 3.40625q-1.09375 1.53125 -3.3125 2.734375q1.28125 1.109375 2.71875 2.84375q0.90625 1.109375 2.421875 3.484375q1.53125 0 2.015625 0.3125q0.875 0.59375 0.875 1.6875q0 0.890625 -0.609375 1.453125q-0.59375 0.546875 -2.046875 0.546875l-2.28125 0q-4.859375 -7.515625 -8.0625 -9.046875l-3.96875 0zm0 -4.0l3.125 0q1.734375 0 3.109375 -0.53125q1.828125 -0.703125 2.453125 -1.484375q0.640625 -0.78125 0.640625 -1.546875q0 -1.125 -1.21875 -2.09375q-1.203125 -0.96875 -3.515625 -0.96875l-4.59375 0l0 6.625zm38.535156 4.515625q0 2.296875 -1.28125 4.453125q-1.28125 2.15625 -3.8125 3.4375q-2.53125 1.28125 -5.28125 1.28125q-2.734375 0 -5.234375 -1.25q-2.5 -1.265625 -3.8125 -3.4375q-1.296875 -2.171875 -1.296875 -4.53125q0 -2.40625 1.328125 -4.71875q1.328125 -2.3125 3.8125 -3.640625q2.484375 -1.328125 5.203125 -1.328125q2.734375 0 5.265625 1.359375q2.53125 1.359375 3.8125 3.65625q1.296875 2.296875 1.296875 4.71875zm-4.0 0.015625q0 -1.9375 -1.390625 -3.5625q-1.890625 -2.1875 -4.984375 -2.1875q-2.71875 0 -4.53125 1.75q-1.8125 1.734375 -1.8125 4.015625q0 1.875 1.828125 3.515625q1.84375 1.625 4.515625 1.625q2.703125 0 4.53125 -1.625q1.84375 -1.640625 1.84375 -3.53125zm23.847656 -8.5q0.71875 -0.6875 1.484375 -0.6875q0.859375 0 1.40625 0.625q0.5625 0.609375 0.5625 2.03125l0 2.578125q0 1.453125 -0.5625 2.0625q-0.546875 0.59375 -1.453125 0.59375q-0.8125 0 -1.390625 -0.46875q-0.40625 -0.34375 -0.640625 -1.421875q-0.234375 -1.09375 -1.125 -1.625q-1.59375 -0.9375 -4.046875 -0.9375q-2.828125 0 -4.546875 1.671875q-1.703125 1.65625 -1.703125 4.1875q0 2.34375 1.640625 3.703125q1.640625 1.359375 5.453125 1.359375q2.5 0 4.078125 -0.5q0.9375 -0.3125 1.765625 -1.0625q0.84375 -0.765625 1.53125 -0.765625q0.828125 0 1.421875 0.609375q0.59375 0.609375 0.59375 1.421875q0 1.328125 -1.8125 2.53125q-2.703125 1.78125 -7.890625 1.78125q-4.671875 0 -7.265625 -1.9375q-3.515625 -2.609375 -3.515625 -7.109375q0 -4.28125 2.84375 -7.078125q2.859375 -2.8125 7.4375 -2.8125q1.671875 0 3.09375 0.3125q1.421875 0.3125 2.640625 0.9375zm14.472656 10.359375l0 6.65625l-4.6875 0q-1.453125 0 -2.078125 -0.546875q-0.609375 -0.5625 -0.609375 -1.46875q0 -0.875 0.625 -1.421875q0.625 -0.5625 2.0625 -0.5625l0.671875 0l0 -17.328125l-0.671875 0q-1.453125 0 -2.078125 -0.546875q-0.609375 -0.5625 -0.609375 -1.46875q0 -0.875 0.609375 -1.421875q0.625 -0.5625 2.078125 -0.5625l4.6875 0l0 13.484375l3.125 -2.515625q-0.5 -0.84375 -0.5 -1.359375q0 -0.90625 0.609375 -1.453125q0.609375 -0.5625 2.046875 -0.5625l4.578125 0q1.4375 0 2.046875 0.5625q0.625 0.546875 0.625 1.453125q0 0.875 -0.625 1.4375q-0.609375 0.546875 -2.046875 0.546875l-1.109375 0l-4.875 3.953125l6.546875 5.78125l1.171875 0q1.453125 0 2.0625 0.5625q0.609375 0.546875 0.609375 1.4375q0 0.890625 -0.609375 1.453125q-0.609375 0.546875 -2.0625 0.546875l-4.609375 0q-1.4375 0 -2.0625 -0.546875q-0.609375 -0.5625 -0.609375 -1.46875q0 -0.765625 0.65625 -1.5l-4.234375 -3.75l-0.734375 0.609375zm37.33206 -0.1875l-16.421906 0q0.625 1.5625 2.21875 2.53125q1.59375 0.953125 4.3125 0.953125q2.21875 0 5.90625 -0.953125q1.5312805 -0.390625 2.1094055 -0.390625q0.8125 0 1.359375 0.5625q0.546875 0.5625 0.546875 1.421875q0 0.78125 -0.59375 1.328125q-0.78125 0.71875 -3.8125305 1.375q-3.015625 0.65625 -5.8125 0.65625q-4.8125 0 -7.6875 -2.703125q-2.875 -2.71875 -2.875 -6.6875q0 -4.21875 3.109375 -6.859375q3.109375 -2.65625 7.171875 -2.65625q2.453125 0 4.484375 0.859375q2.046875 0.859375 3.0469055 1.859375q1.40625 1.4375 2.3125 3.578125q0.625 1.484375 0.625 3.4375l0 1.6875zm-4.4219055 -4.0q-0.921875 -1.71875 -2.40625 -2.5625q-1.484375 -0.859375 -3.53125 -0.859375q-2.03125 0 -3.515625 0.859375q-1.484375 0.84375 -2.421875 2.5625l11.875 0zm17.394562 -2.890625l0 8.03125q0 1.28125 0.53125 1.703125q0.8125 0.640625 2.921875 0.640625q3.078125 0 5.671875 -1.3125q1.0 -0.5 1.5625 -0.5q0.78125 0 1.359375 0.59375q0.578125 0.578125 0.578125 1.40625q0 0.78125 -0.625 1.359375q-0.96875 0.90625 -3.796875 1.6875q-2.8125 0.765625 -4.75 0.765625q-3.71875 0 -5.59375 -1.609375q-1.859375 -1.609375 -1.859375 -3.953125l0 -8.8125l-1.453125 0q-1.4375 0 -2.0625 -0.546875q-0.609375 -0.5625 -0.609375 -1.46875q0 -0.875 0.609375 -1.421875q0.625 -0.5625 2.0625 -0.5625l1.453125 0l0 -3.609375q0 -1.453125 0.546875 -2.0625q0.5625 -0.625 1.46875 -0.625q0.875 0 1.421875 0.625q0.5625 0.609375 0.5625 2.0625l0 3.609375l7.40625 0q1.4375 0 2.046875 0.5625q0.625 0.546875 0.625 1.453125q0 0.875 -0.625 1.4375q-0.609375 0.546875 -2.046875 0.546875l-7.40625 0zm36.08203 25.75l-22.0 0q-1.453125 0 -2.0625 -0.546875q-0.609375 -0.546875 -0.609375 -1.453125q0 -0.890625 0.609375 -1.453125q0.609375 -0.546875 2.0625 -0.546875l22.0 0q1.421875 0 2.03125 0.546875q0.625 0.5625 0.625 1.453125q0 0.890625 -0.609375 1.4375q-0.609375 0.5625 -2.046875 0.5625z" fill-rule="nonzero"/></g></svg>